<svg version="1.1" id="Layer_1" xmlns="http://www.w3.org/2000/svg" xmlns:xlink="http://www.w3.org/1999/xlink" x="0px" y="0px"
	 width="100%" viewBox="0 0 1563 1563" enable-background="new 0 0 1563 1563" xml:space="preserve">
<path fill="#000000" opacity="1.000000" stroke="none" 
	d="
M999.000000,1564.000000 
	C666.000122,1564.000000 333.500183,1564.000000 1.000223,1564.000000 
	C1.000149,1043.000244 1.000149,522.000488 1.000074,1.000572 
	C521.999573,1.000382 1042.999146,1.000382 1563.999023,1.000191 
	C1563.999390,521.999451 1563.999390,1042.998901 1563.999756,1563.999146 
	C1375.833374,1564.000000 1187.666626,1564.000000 999.000000,1564.000000 
M995.231384,1045.582520 
	C996.526611,1045.762451 997.821838,1045.942383 1000.590515,1046.327026 
	C998.142395,1047.778198 997.111633,1048.389282 996.945862,1048.487549 
	C998.323914,1049.802124 999.558899,1050.980103 1000.934387,1052.292236 
	C1001.061218,1051.827271 1001.247314,1051.145508 1001.361572,1050.479858 
	C1001.361572,1050.479858 1001.307068,1050.529419 1002.071228,1050.350830 
	C1002.943542,1051.221436 1004.704834,1052.594971 1004.543152,1052.880737 
	C1003.525085,1054.680542 1002.079834,1056.238892 1001.160828,1057.393188 
	C1001.781433,1060.160400 1002.636353,1062.982910 1003.020752,1065.868042 
	C1004.292969,1075.415283 1000.208557,1085.157715 1004.390198,1094.707153 
	C1005.801697,1097.930664 1005.793945,1101.806274 1006.257507,1105.406738 
	C1006.890625,1110.324097 1008.157349,1115.338989 1007.702759,1120.175781 
	C1007.017395,1127.467651 1004.522339,1134.416992 1007.987122,1141.892700 
	C1010.232239,1146.737061 1010.799011,1152.382935 1011.933350,1157.708984 
	C1012.594727,1160.814209 1013.311157,1164.004517 1013.253479,1167.142822 
	C1013.171814,1171.578979 1015.216370,1173.852783 1019.524231,1172.952881 
	C1023.271057,1172.170166 1025.560303,1169.333130 1025.077271,1165.901123 
	C1024.375610,1160.916870 1021.594177,1156.155273 1021.286682,1151.200073 
	C1020.615417,1140.381958 1018.039246,1129.738037 1019.800781,1118.635864 
	C1021.148132,1110.143799 1022.495728,1101.501953 1018.506042,1092.633545 
	C1016.135376,1087.364014 1016.889709,1080.513184 1016.940979,1074.379150 
	C1016.991150,1068.376587 1017.932190,1062.381348 1018.482178,1056.382935 
	C1019.351379,1056.356812 1020.220581,1056.330811 1021.089783,1056.304688 
	C1021.558655,1060.060425 1022.221985,1063.804443 1022.446838,1067.574707 
	C1022.724182,1072.222900 1022.629578,1076.893066 1022.708557,1081.553467 
	C1022.817322,1087.976074 1023.222900,1094.409302 1022.981018,1100.818359 
	C1022.685242,1108.656860 1023.979797,1115.708496 1030.159180,1121.200928 
	C1030.944580,1121.899048 1031.828247,1123.125732 1031.758545,1124.038330 
	C1031.422729,1128.438721 1031.018433,1132.862549 1030.175171,1137.187866 
	C1029.225830,1142.058350 1031.544189,1144.620361 1036.426880,1143.559204 
	C1040.806152,1142.607666 1042.764648,1138.813843 1041.211914,1134.489746 
	C1040.025879,1131.186768 1038.927368,1128.035645 1042.542969,1125.154175 
	C1047.374878,1121.303101 1046.737427,1120.341309 1042.750488,1115.352417 
	C1039.782349,1111.638184 1036.950806,1106.869873 1036.479126,1102.320068 
	C1035.709473,1094.897217 1037.005005,1087.272705 1037.257935,1079.727661 
	C1037.479858,1073.103516 1034.219238,1066.068848 1040.035156,1060.173462 
	C1043.721558,1056.436768 1046.862305,1052.105225 1050.831787,1048.726685 
	C1053.011230,1046.871948 1056.401978,1046.440186 1059.012573,1045.455078 
	C1058.544434,1045.224854 1057.723389,1044.820801 1056.773071,1044.353149 
	C1061.638428,1043.176514 1066.198975,1042.343384 1070.587524,1040.962891 
	C1085.171265,1036.375366 1088.322266,1024.995483 1077.618042,1014.058289 
	C1065.753906,1001.935913 1053.611572,990.045410 1040.998901,978.712219 
	C1033.911011,972.343445 1025.628540,967.304138 1016.611877,960.739563 
	C1026.984131,961.795288 1035.973267,962.932495 1044.998047,963.527405 
	C1049.024536,963.792725 1053.601562,964.025574 1057.100342,962.442383 
	C1068.435913,957.312927 1071.790405,947.820068 1065.770020,936.922302 
	C1062.037354,930.165527 1056.571777,924.366028 1052.558472,917.799622 
	C1054.195312,917.778503 1055.850098,917.589233 1057.466309,917.761230 
	C1086.599731,920.862427 1115.735840,923.942749 1144.848877,927.226624 
	C1148.363159,927.622986 1150.437378,926.489746 1152.436768,923.857544 
	C1158.280029,916.165161 1164.170776,908.501160 1170.295044,901.032837 
	C1173.637817,896.956482 1175.349365,892.676636 1175.073975,887.321289 
	C1174.740479,880.838989 1174.669067,874.305786 1175.086792,867.833435 
	C1175.464844,861.978333 1174.332397,857.671509 1167.778442,856.552734 
	C1167.591309,856.520813 1167.486084,856.008362 1167.099609,855.231750 
	C1169.062500,854.143677 1171.284058,853.312439 1172.973145,851.861145 
	C1174.608521,850.456238 1176.514282,848.576233 1176.901733,846.626709 
	C1182.714600,817.374023 1188.266235,788.069519 1193.972534,758.795410 
	C1194.618774,755.480835 1193.927490,753.074158 1191.254639,750.899963 
	C1186.480469,747.016296 1181.580200,743.195068 1177.343628,738.763733 
	C1170.189209,731.280579 1161.770020,727.461487 1151.416382,726.982605 
	C1144.958496,726.683899 1138.550049,725.274109 1132.124146,724.331482 
	C1098.009766,719.327209 1063.906372,714.245667 1029.763550,709.443359 
	C1027.304443,709.097473 1024.267334,710.270020 1022.020203,711.610413 
	C1018.572327,713.666992 1015.577515,716.482971 1011.465088,719.700684 
	C1011.465088,713.600464 1011.611877,708.857788 1011.400146,704.131287 
	C1011.301575,701.932129 1011.149902,699.274475 1009.922058,697.663086 
	C1003.059143,688.656799 995.982727,679.802979 988.667908,671.160583 
	C987.270569,669.509705 984.463562,668.134766 982.335022,668.173706 
	C971.362854,668.373901 960.399536,669.072754 949.433533,669.604248 
	C934.149475,670.344971 918.865723,671.091553 903.971863,671.265991 
	C942.070801,639.712036 965.948792,599.756287 973.252686,550.736511 
	C974.869812,539.883423 979.309326,534.652527 989.059265,530.773438 
	C1020.776733,518.154358 1051.916504,504.172729 1080.781006,485.711426 
	C1094.270752,477.083618 1107.380615,467.854187 1117.341431,455.015106 
	C1131.359375,436.946442 1126.736328,420.857117 1105.320435,412.616089 
	C1092.098389,407.528107 1078.239380,405.761749 1064.238281,405.061829 
	C1025.966919,403.148621 988.053162,407.115570 950.247070,412.460449 
	C945.100403,413.188080 941.239502,411.856750 938.002625,407.734741 
	C933.376648,401.843811 928.827148,395.818573 923.593689,390.490509 
	C876.758423,342.808319 820.048279,322.825348 753.858521,332.189880 
	C705.364380,339.050781 665.415649,362.304474 634.133606,399.987396 
	C610.250793,428.757080 595.826416,461.749634 591.794922,499.070740 
	C591.173035,504.827789 588.484375,508.431274 582.954956,510.480499 
	C575.161377,513.368835 567.539246,516.729675 559.891052,519.998962 
	C528.770691,533.301819 498.072998,547.528259 470.978485,568.110596 
	C461.940308,574.976501 453.523682,583.168091 446.529572,592.091309 
	C437.434326,603.695251 438.621643,612.809509 448.019989,624.873901 
	C449.374878,635.626465 450.729797,646.379028 452.084717,657.131531 
	C451.633545,657.259033 451.182373,657.386597 450.731201,657.514099 
	C449.869629,656.385254 448.934174,655.304932 448.157654,654.120300 
	C437.839081,638.378479 427.482849,622.660706 417.287384,606.839417 
	C415.027466,603.332458 412.565643,602.071777 408.212524,602.709961 
	C383.502533,606.332520 358.750458,609.673401 333.991821,612.952454 
	C330.277405,613.444397 329.276794,614.953979 329.766388,618.554565 
	C333.086243,642.968628 336.262085,667.402405 339.479370,691.830444 
	C343.348755,721.210388 347.196991,750.593079 351.084106,779.970703 
	C355.298767,811.823792 359.601440,843.665405 363.717957,875.531189 
	C364.274292,879.837524 365.784088,881.325439 370.206696,880.229797 
	C393.975037,874.341553 417.767975,868.549011 441.598358,862.917908 
	C446.235870,861.822083 447.224182,859.396545 446.731934,855.007324 
	C444.395660,834.174927 442.283966,813.317139 440.152222,792.462219 
	C440.020721,791.175964 440.402466,789.837219 440.670319,787.374390 
	C442.339355,789.437073 443.247650,790.379639 443.951447,791.455872 
	C457.988586,812.923035 472.116180,834.332825 485.930634,855.942627 
	C488.937653,860.646545 492.067078,862.550171 497.789398,861.456421 
	C516.273193,857.923462 534.841675,854.831726 553.386780,851.623230 
	C559.020142,850.648560 559.601013,851.192383 559.350159,857.291016 
	C552.364258,861.477478 544.993469,865.140198 538.458618,869.940735 
	C509.556976,891.172058 488.191620,916.812134 485.252289,954.890869 
	C482.556519,989.815125 499.322449,1022.028992 530.697510,1037.456299 
	C560.843872,1052.279419 601.870605,1042.107178 620.468750,1014.614014 
	C633.047119,996.019592 637.482239,974.945923 635.609192,952.782715 
	C635.081299,946.535950 632.514587,940.162964 629.628418,934.485657 
	C625.546082,926.455322 615.599426,923.234802 608.235535,926.472717 
	C599.524719,930.302856 595.501404,939.157349 599.041870,948.505188 
	C602.343811,957.223022 602.690735,966.122864 601.809875,975.080261 
	C600.471802,988.687134 595.738708,1000.783752 583.383850,1008.285095 
	C565.872742,1018.917236 545.234070,1018.972656 532.359070,1002.884766 
	C523.601135,991.941528 518.436401,979.161682 518.161987,965.187439 
	C517.694580,941.381653 526.041443,920.416077 542.048584,902.908997 
	C548.100586,896.289856 555.713745,891.098083 563.178711,884.778687 
	C563.178711,896.319519 563.178711,906.267090 563.178711,916.214661 
	C562.833374,916.229065 562.488098,916.243469 562.142761,916.257874 
	C561.405457,909.734863 560.668091,903.211853 559.930725,896.688904 
	C558.757568,898.019043 558.275513,899.388184 558.314880,900.742249 
	C558.847412,919.056519 559.221558,937.380615 560.175964,955.674133 
	C560.474182,961.390747 561.798279,967.230591 563.707336,972.642029 
	C566.164307,979.606506 571.896362,983.370544 579.126953,984.608643 
	C584.917908,985.600159 587.298645,982.820251 585.586182,977.347595 
	C585.373535,976.668091 585.290771,975.875977 585.405579,975.178467 
	C585.903931,972.152771 587.005554,969.138306 586.979187,966.127747 
	C586.696045,933.833374 586.240234,901.540588 586.584534,868.843628 
	C587.708740,868.579285 588.823547,868.138489 589.958679,868.077454 
	C603.378357,867.355957 616.805359,866.764465 630.220886,865.976074 
	C635.706360,865.653687 640.600159,865.890930 641.932800,872.687378 
	C642.039978,873.233948 642.804871,873.651489 643.205078,874.999756 
	C645.689026,902.022766 648.077759,929.055054 650.688599,956.065796 
	C652.592834,975.766541 655.730774,995.374146 654.053772,1015.289368 
	C653.537415,1021.422302 653.458313,1027.604248 653.445068,1033.764404 
	C653.427856,1041.786987 660.104980,1047.454346 667.723083,1045.515503 
	C700.099976,1037.275391 732.941284,1034.215454 766.268494,1036.131958 
	C770.974060,1036.402588 774.797974,1035.055176 777.157593,1030.679321 
	C779.599915,1026.150024 779.536377,1021.826660 776.409851,1017.576233 
	C775.465698,1016.292786 774.409912,1014.738464 774.306946,1013.246033 
	C773.592163,1002.883545 768.890076,997.330017 758.381165,996.961426 
	C746.269348,996.536499 734.090698,996.822998 721.992615,997.601990 
	C713.301514,998.161682 704.695129,1000.036194 695.813721,1001.359497 
	C692.979431,964.437866 690.167603,927.808472 688.372437,891.117859 
	C720.131897,891.499695 751.891418,891.881470 783.532410,893.099121 
	C782.489136,901.186768 781.046387,909.246399 780.475403,917.367249 
	C778.547363,944.788879 781.790405,971.534607 791.695923,997.337769 
	C793.181824,1001.208313 795.417542,1003.796570 799.565002,1004.917664 
	C801.032227,1005.314331 802.393127,1006.830872 803.380737,1008.151550 
	C808.149719,1014.529358 812.093567,1021.672852 817.572449,1027.344604 
	C838.137878,1048.634277 866.218994,1049.853638 886.846375,1031.356201 
	C900.734009,1018.902405 909.255371,1003.511475 913.989014,985.713013 
	C919.522095,964.908813 920.758362,943.714478 920.248657,922.307251 
	C919.982727,911.136658 920.201782,899.954590 920.201782,889.214844 
	C922.588135,891.185486 925.343628,893.847595 928.483948,895.929199 
	C930.902466,897.532349 932.176025,899.205688 932.409119,902.212524 
	C933.387268,914.830383 934.733276,927.420410 935.637268,940.042542 
	C935.741699,941.499695 934.241455,943.464050 932.949402,944.563965 
	C925.774658,950.671814 925.524048,961.812256 933.512451,966.347717 
	C938.392273,969.118286 939.246277,972.422913 939.147949,977.061462 
	C939.116394,978.549561 939.456665,980.041931 939.556519,981.537048 
	C940.442078,994.800049 941.311890,1008.064087 942.190063,1021.384338 
	C940.387573,1021.907776 939.114868,1022.205200 937.893188,1022.644531 
	C932.281799,1024.661865 929.343201,1029.180908 930.128479,1034.509644 
	C931.357849,1042.853149 935.510498,1047.647095 942.185608,1047.290527 
	C949.292236,1046.911133 956.355225,1045.714478 963.437195,1044.873901 
	C973.314026,1043.701538 983.174316,1042.331543 993.080139,1041.508179 
	C995.278076,1041.325439 998.823120,1040.893677 999.585327,1044.864990 
	C997.769287,1045.339600 996.082458,1045.780640 994.638306,1045.921997 
	C994.574036,1045.958130 994.509766,1045.994263 995.231384,1045.582520 
M735.504456,1047.235596 
	C744.154785,1047.537109 752.803955,1047.914185 761.456909,1048.052734 
	C762.655884,1048.071777 764.566101,1047.159912 764.900085,1046.230835 
	C765.280945,1045.171631 764.632263,1043.217651 763.744080,1042.385376 
	C762.970398,1041.660278 761.242798,1041.834473 759.933838,1041.816895 
	C733.251160,1041.458374 706.707336,1043.284424 680.312317,1047.150757 
	C676.240295,1047.747192 672.275696,1049.076782 668.261414,1050.067383 
	C668.346741,1050.414185 668.432007,1050.760986 668.517334,1051.107788 
	C690.512695,1049.812622 712.507996,1048.517334 735.504456,1047.235596 
z"/>
<path fill="#4700D2" opacity="1.000000" stroke="none" 
	d="
M448.002991,624.022461 
	C438.621643,612.809509 437.434326,603.695251 446.529572,592.091309 
	C453.523682,583.168091 461.940308,574.976501 470.978485,568.110596 
	C498.072998,547.528259 528.770691,533.301819 559.891052,519.998962 
	C567.539246,516.729675 575.161377,513.368835 582.954956,510.480499 
	C588.484375,508.431274 591.173035,504.827789 591.794922,499.070740 
	C595.826416,461.749634 610.250793,428.757080 634.133606,399.987396 
	C665.415649,362.304474 705.364380,339.050781 753.858521,332.189880 
	C820.048279,322.825348 876.758423,342.808319 923.593689,390.490509 
	C928.827148,395.818573 933.376648,401.843811 938.002625,407.734741 
	C941.239502,411.856750 945.100403,413.188080 950.247070,412.460449 
	C988.053162,407.115570 1025.966919,403.148621 1064.238281,405.061829 
	C1078.239380,405.761749 1092.098389,407.528107 1105.320435,412.616089 
	C1126.736328,420.857117 1131.359375,436.946442 1117.341431,455.015106 
	C1107.380615,467.854187 1094.270752,477.083618 1080.781006,485.711426 
	C1051.916504,504.172729 1020.776733,518.154358 989.059265,530.773438 
	C979.309326,534.652527 974.869812,539.883423 973.252686,550.736511 
	C965.948792,599.756287 942.070801,639.712036 903.373413,671.597473 
	C899.069702,672.722290 899.637085,669.939026 899.576050,667.935547 
	C899.011902,649.447021 898.401184,630.958496 898.074097,612.465210 
	C898.005432,608.584656 897.176880,607.073669 892.905334,606.796082 
	C873.291077,605.521545 853.707153,603.785400 834.108032,602.270569 
	C826.371704,601.672607 818.624329,601.219177 810.380127,600.666321 
	C810.380127,631.798462 810.380127,662.182373 810.380127,692.845154 
	C767.978149,690.860107 726.052979,688.897461 683.897217,686.671692 
	C682.899902,686.136841 681.992004,686.043884 681.387390,685.566711 
	C670.234924,676.763489 659.118652,667.914307 648.018555,658.655029 
	C649.558289,648.927734 650.522522,639.486145 652.742188,630.349548 
	C655.060242,620.807678 654.905945,612.560486 646.094971,606.386536 
	C645.976013,606.303162 645.942749,606.097595 646.245056,605.796631 
	C677.097595,599.426270 707.715515,593.822571 738.024475,586.871948 
	C820.018311,568.068970 900.448364,543.999268 978.649719,512.849121 
	C1014.713623,498.483704 1049.846802,482.069092 1082.457031,460.817596 
	C1089.478149,456.242065 1095.967773,450.479095 1101.616333,444.274445 
	C1107.232788,438.105072 1105.758423,432.483734 1097.931885,430.062531 
	C1089.604126,427.486237 1080.808228,425.572388 1072.127930,425.136475 
	C1037.930542,423.419159 1003.910156,426.204041 970.025208,430.750977 
	C959.525269,432.159912 956.923401,437.099396 960.468872,447.090210 
	C964.135376,457.422180 967.589417,467.846527 970.649902,478.371948 
	C973.688354,488.821747 977.971802,491.344147 988.240479,487.275421 
	C1012.359375,477.718872 1036.415161,468.002899 1060.704834,458.619385 
	C1061.055664,459.063263 1061.198120,459.239166 1061.094482,459.650024 
	C1057.960327,461.535431 1055.104248,463.244263 1052.180176,464.827667 
	C1003.447266,491.216522 951.906738,510.883331 899.508545,528.473267 
	C803.752930,560.618042 706.006653,584.522583 605.611328,599.152344 
	C593.135193,599.291443 581.084717,599.467834 569.044189,599.404236 
	C569.051331,598.843811 569.038391,598.523804 569.419373,598.102295 
	C577.028870,596.760681 584.275024,595.715881 591.428528,594.226135 
	C598.478821,592.757996 601.346497,587.883972 599.787720,580.923279 
	C596.996216,568.458130 594.218384,555.989929 591.445740,543.520630 
	C589.682800,535.592102 584.143555,532.485840 576.581055,535.523926 
	C569.958069,538.184570 563.439392,541.115723 556.940002,544.071167 
	C531.514832,555.632629 506.217102,567.506348 482.931122,583.052246 
	C475.971436,587.698486 469.933533,593.806152 463.831665,599.620361 
	C461.073883,602.248108 460.107849,605.919128 462.543304,609.890808 
	C467.407043,612.342773 471.903351,615.496277 476.860199,616.622314 
	C493.725616,620.453186 510.915405,619.178162 528.472900,618.713623 
	C537.333923,618.253479 545.743591,617.697693 554.160583,617.292603 
	C557.731323,617.120850 561.317200,617.265076 564.803467,617.662842 
	C564.440063,624.607727 564.169434,631.155457 563.446289,637.753906 
	C555.996521,638.258606 548.999207,638.712585 541.552002,639.116333 
	C537.416687,639.323425 533.731262,639.580688 529.595337,639.768921 
	C527.653687,639.662964 526.162354,639.634521 524.671509,639.588013 
	C503.141052,638.917480 481.531372,638.870789 460.562805,631.366882 
	C456.184998,628.828674 452.093994,626.425537 448.002991,624.022461 
M873.582764,427.853119 
	C879.609680,421.072571 887.230896,419.813019 896.505676,421.874146 
	C890.067322,415.137543 887.589844,407.880310 890.049683,398.365204 
	C883.113586,404.632233 876.151062,406.828278 868.810425,405.200317 
	C870.509338,410.005768 872.564453,414.653320 873.710815,419.515106 
	C874.358826,422.263153 873.513062,425.363403 873.215149,428.420349 
	C873.215149,428.420349 873.101562,428.147552 873.101562,428.147552 
	C873.101562,428.147552 873.198975,428.433899 873.582764,427.853119 
M782.669983,384.187378 
	C782.743469,384.068878 782.816956,383.950409 782.890442,383.831940 
	C782.720032,384.059113 782.549622,384.286316 783.026062,384.734436 
	C797.580200,397.156158 800.877747,412.809967 795.449097,432.386841 
	C809.335876,417.464325 824.899475,413.429718 843.115356,418.659607 
	C829.362549,405.424561 825.842407,389.836548 831.107056,371.488403 
	C829.873108,372.220642 829.392334,372.388580 829.070557,372.713898 
	C816.857666,385.059387 802.408997,388.932922 785.649048,384.313568 
	C784.639343,384.035278 783.438416,384.450867 782.669983,384.187378 
M853.011841,450.928345 
	C849.865417,450.928345 846.718933,450.928345 843.358582,450.928345 
	C849.379944,457.010468 851.169067,464.344543 848.817444,474.204315 
	C855.847656,466.785553 863.166992,465.266602 872.311584,467.288635 
	C865.982544,460.264923 863.614075,453.150452 865.944458,445.210724 
	C861.827454,447.115570 857.833008,448.963715 853.011841,450.928345 
M831.470276,370.756195 
	C831.470276,370.756195 831.592712,370.462708 831.592712,370.462708 
	C831.592712,370.462708 831.294189,370.538574 831.470276,370.756195 
M866.631958,404.510895 
	C866.631958,404.510895 866.567688,404.497467 866.631958,404.510895 
M844.612793,419.511627 
	C844.612793,419.511627 844.362549,419.380463 844.362549,419.380463 
	C844.362549,419.380463 844.406189,419.649506 844.612793,419.511627 
M795.715210,432.443390 
	C795.715210,432.443390 795.412842,432.271515 795.412842,432.271515 
	C795.412842,432.271515 795.457764,432.624725 795.715210,432.443390 
z"/>
<path fill="#120A0B" opacity="1.000000" stroke="none" 
	d="
M563.898743,637.703186 
	C564.169434,631.155457 564.440063,624.607727 564.817566,617.182434 
	C564.943115,612.180481 564.961853,608.056030 565.009888,603.532715 
	C564.562439,599.900391 566.895081,599.883057 569.034180,599.644287 
	C581.084717,599.467834 593.135193,599.291443 605.996155,599.289062 
	C614.218689,599.643738 621.645996,600.196899 629.038269,599.893799 
	C635.650940,599.622620 641.506470,600.440918 645.869507,605.949036 
	C645.942749,606.097595 645.976013,606.303162 646.094971,606.386536 
	C654.905945,612.560486 655.060242,620.807678 652.742188,630.349548 
	C650.522522,639.486145 649.558289,648.927734 647.976440,659.027832 
	C647.185181,662.763000 646.899841,665.340088 650.806946,666.487671 
	C651.721436,666.756226 652.692932,668.837341 652.646545,670.046570 
	C652.336060,678.155029 651.736511,686.252075 651.281433,694.355591 
	C651.175781,696.236816 651.265869,698.129089 651.265869,700.016235 
	C654.360168,697.239441 656.517151,694.179749 658.346741,690.935425 
	C660.354431,687.375244 663.086792,685.646790 667.258423,685.978333 
	C672.871460,686.424438 678.503784,686.627441 684.127869,686.934814 
	C726.052979,688.897461 767.978149,690.860107 810.380127,692.845154 
	C810.380127,662.182373 810.380127,631.798462 810.380127,600.666321 
	C818.624329,601.219177 826.371704,601.672607 834.108032,602.270569 
	C853.707153,603.785400 873.291077,605.521545 892.905334,606.796082 
	C897.176880,607.073669 898.005432,608.584656 898.074097,612.465210 
	C898.401184,630.958496 899.011902,649.447021 899.576050,667.935547 
	C899.637085,669.939026 899.069702,672.722290 903.178345,671.882324 
	C918.865723,671.091553 934.149475,670.344971 949.433533,669.604248 
	C960.399536,669.072754 971.362854,668.373901 982.335022,668.173706 
	C984.463562,668.134766 987.270569,669.509705 988.667908,671.160583 
	C995.982727,679.802979 1003.059143,688.656799 1009.922058,697.663086 
	C1011.149902,699.274475 1011.301575,701.932129 1011.400146,704.131287 
	C1011.611877,708.857788 1011.465088,713.600464 1011.465088,719.700684 
	C1015.577515,716.482971 1018.572327,713.666992 1022.020203,711.610413 
	C1024.267334,710.270020 1027.304443,709.097473 1029.763550,709.443359 
	C1063.906372,714.245667 1098.009766,719.327209 1132.124146,724.331482 
	C1138.550049,725.274109 1144.958496,726.683899 1151.416382,726.982605 
	C1161.770020,727.461487 1170.189209,731.280579 1177.343628,738.763733 
	C1181.580200,743.195068 1186.480469,747.016296 1191.254639,750.899963 
	C1193.927490,753.074158 1194.618774,755.480835 1193.972534,758.795410 
	C1188.266235,788.069519 1182.714600,817.374023 1176.901733,846.626709 
	C1176.514282,848.576233 1174.608521,850.456238 1172.973145,851.861145 
	C1171.284058,853.312439 1169.062500,854.143677 1167.099609,855.231750 
	C1167.486084,856.008362 1167.591309,856.520813 1167.778442,856.552734 
	C1174.332397,857.671509 1175.464844,861.978333 1175.086792,867.833435 
	C1174.669067,874.305786 1174.740479,880.838989 1175.073975,887.321289 
	C1175.349365,892.676636 1173.637817,896.956482 1170.295044,901.032837 
	C1164.170776,908.501160 1158.280029,916.165161 1152.436768,923.857544 
	C1150.437378,926.489746 1148.363159,927.622986 1144.848877,927.226624 
	C1115.735840,923.942749 1086.599731,920.862427 1057.466309,917.761230 
	C1055.850098,917.589233 1054.195312,917.778503 1051.921265,917.826294 
	C1046.192749,913.214783 1041.101440,908.576660 1036.459961,903.876526 
	C1048.664307,905.041382 1060.424438,906.216858 1072.172119,907.506226 
	C1094.513062,909.958252 1116.854858,912.407043 1139.175781,915.031982 
	C1142.940918,915.474792 1145.305664,914.491699 1147.518188,911.332886 
	C1151.813232,905.200989 1156.634399,899.439880 1161.138184,893.450317 
	C1162.099731,892.171692 1163.222656,890.593018 1163.270020,889.120361 
	C1163.493896,882.165222 1163.369873,875.198853 1163.369873,868.038025 
	C1146.422241,864.860474 1130.187012,862.071411 1114.086304,858.649048 
	C1108.969727,857.561462 1105.998047,858.427856 1103.729492,863.184753 
	C1102.902344,864.919373 1100.363647,867.305054 1098.981445,867.080383 
	C1085.386841,864.872070 1071.871338,862.175781 1057.789185,859.515137 
	C1058.986938,852.580994 1060.101196,846.130676 1061.231201,839.589294 
	C1062.620605,839.681274 1063.444824,839.676575 1064.250000,839.797913 
	C1083.505737,842.700256 1102.798462,845.383789 1122.000488,848.607117 
	C1135.969604,850.952026 1149.899536,854.404175 1162.302490,844.087830 
	C1164.160767,842.542175 1166.313477,840.414246 1166.749878,838.238647 
	C1171.823730,812.949768 1176.656494,787.611511 1181.310303,762.241699 
	C1181.639404,760.447327 1180.609131,757.735352 1179.262817,756.421997 
	C1174.381104,751.659668 1169.204102,747.177246 1163.901733,742.881470 
	C1162.081787,741.407043 1159.654297,740.216614 1157.356812,739.867554 
	C1122.141968,734.517700 1086.866211,729.559082 1051.687500,723.986145 
	C1038.085815,721.831360 1024.923096,718.753357 1014.701538,732.051819 
	C1012.715698,734.635437 1010.958862,736.516418 1010.918945,740.052795 
	C1010.447998,781.862000 1009.804871,823.669250 1009.188599,865.476746 
	C1009.162720,867.228394 1008.955627,868.977478 1008.825928,870.827087 
	C1003.921814,870.827087 999.600891,870.961487 995.293518,870.777893 
	C992.609070,870.663513 991.742432,871.940857 991.336060,874.191162 
	C985.025024,870.686707 978.548950,870.126709 971.814087,870.092590 
	C956.887451,870.017029 941.963684,869.469849 927.036682,869.336365 
	C923.783386,869.307251 922.012939,868.426392 921.995056,864.563782 
	C921.678467,849.124084 921.326477,834.155945 921.050049,819.186401 
	C920.672119,798.722717 920.328003,778.258484 920.018616,757.793701 
	C919.902161,750.086487 919.484558,749.673645 912.087402,750.632935 
	C910.276611,750.867798 908.430359,751.050598 906.613159,750.970032 
	C902.560974,750.790466 900.811584,752.612610 900.992249,756.642090 
	C901.372009,765.113403 901.789856,773.587219 901.932739,782.064331 
	C902.353455,807.023682 902.647522,831.985229 902.937317,857.399292 
	C902.883484,860.739929 902.883484,863.627197 902.883484,866.689392 
	C895.747925,867.164490 889.368896,867.589233 882.548584,868.017090 
	C865.333008,869.044678 848.558594,870.069031 831.458679,871.161133 
	C827.349548,877.031433 823.404785,882.737732 819.853638,888.679260 
	C818.200134,891.445740 816.389832,892.562744 813.098450,892.470825 
	C803.288269,892.197144 793.467529,892.304626 783.650879,892.263245 
	C751.891418,891.881470 720.131897,891.499695 687.575684,890.989502 
	C685.343079,890.748840 683.907227,890.636414 682.252747,890.506897 
	C682.042419,892.379395 681.880432,893.821655 681.718384,895.263855 
	C681.273560,890.916321 678.685608,889.748413 674.784851,890.249756 
	C670.415161,890.811523 666.706299,889.309387 663.187927,886.751587 
	C660.186279,884.569458 656.882507,882.803040 653.159180,880.512451 
	C653.740417,902.930115 654.296326,924.370056 654.852173,945.810059 
	C652.539307,924.979553 650.676453,904.126892 649.357117,883.239868 
	C649.057983,878.504578 647.270508,875.849304 643.264099,874.129028 
	C642.804871,873.651489 642.039978,873.233948 641.932800,872.687378 
	C640.600159,865.890930 635.706360,865.653687 630.220886,865.976074 
	C616.805359,866.764465 603.378357,867.355957 589.958679,868.077454 
	C588.823547,868.138489 587.708740,868.579285 585.776062,868.881836 
	C577.020081,868.919983 569.072632,868.919983 560.700745,868.919983 
	C560.485779,865.214783 560.248596,861.127136 560.011475,857.039490 
	C559.601013,851.192383 559.020142,850.648560 553.386780,851.623230 
	C534.841675,854.831726 516.273193,857.923462 497.789398,861.456421 
	C492.067078,862.550171 488.937653,860.646545 485.930634,855.942627 
	C472.116180,834.332825 457.988586,812.923035 443.951447,791.455872 
	C443.247650,790.379639 442.339355,789.437073 440.670319,787.374390 
	C440.402466,789.837219 440.020721,791.175964 440.152222,792.462219 
	C442.283966,813.317139 444.395660,834.174927 446.731934,855.007324 
	C447.224182,859.396545 446.235870,861.822083 441.598358,862.917908 
	C417.767975,868.549011 393.975037,874.341553 370.206696,880.229797 
	C365.784088,881.325439 364.274292,879.837524 363.717957,875.531189 
	C359.601440,843.665405 355.298767,811.823792 351.084106,779.970703 
	C347.196991,750.593079 343.348755,721.210388 339.479370,691.830444 
	C336.262085,667.402405 333.086243,642.968628 329.766388,618.554565 
	C329.276794,614.953979 330.277405,613.444397 333.991821,612.952454 
	C358.750458,609.673401 383.502533,606.332520 408.212524,602.709961 
	C412.565643,602.071777 415.027466,603.332458 417.287384,606.839417 
	C427.482849,622.660706 437.839081,638.378479 448.157654,654.120300 
	C448.934174,655.304932 449.869629,656.385254 450.731201,657.514099 
	C451.182373,657.386597 451.633545,657.259033 452.084717,657.131531 
	C450.729797,646.379028 449.374878,635.626465 448.011475,624.448120 
	C452.093994,626.425537 456.184998,628.828674 460.539368,631.839355 
	C464.034576,657.474060 467.266418,682.501160 470.498260,707.528320 
	C468.805206,706.539185 467.828430,705.288757 466.961243,703.966431 
	C448.418701,675.694275 429.818817,647.458984 411.445618,619.077087 
	C409.201752,615.610901 406.944336,614.528137 402.956329,615.123047 
	C384.348938,617.898560 365.715607,620.508606 347.065582,622.982117 
	C343.473816,623.458557 342.295624,624.641235 342.821411,628.391418 
	C345.109955,644.714600 347.093323,661.080261 349.244232,677.423096 
	C356.522614,732.724243 363.818268,788.023132 371.126068,843.320374 
	C372.160858,851.150391 373.299683,858.966736 374.451080,867.225220 
	C394.020599,862.415710 412.926117,857.846252 431.747711,852.953979 
	C432.884644,852.658447 434.161224,849.717468 434.012848,848.134949 
	C431.634338,822.766968 429.032440,797.419800 426.485748,772.067505 
	C425.433838,761.595947 424.392303,751.123291 423.346039,740.651184 
	C425.616089,742.369385 426.961761,744.410583 428.300781,746.456177 
	C450.010834,779.622009 471.747528,812.770386 493.379944,845.986755 
	C495.213135,848.801575 496.792114,850.026794 500.531799,849.275024 
	C514.726624,846.421509 529.031128,844.116699 543.282715,841.540894 
	C550.583069,840.221313 550.571411,840.158264 549.804749,832.676575 
	C543.218384,768.397034 536.632141,704.117493 530.045837,639.837952 
	C533.731262,639.580688 537.416687,639.323425 541.551514,639.552979 
	C542.319153,643.682068 542.601257,647.327942 542.961487,650.966064 
	C545.402832,675.622681 547.831238,700.280579 550.321411,724.932251 
	C552.861694,750.080139 555.457092,775.222412 558.056458,800.364258 
	C558.466064,804.326233 559.024109,808.272888 559.513611,812.226624 
	C560.736023,810.719788 560.967712,809.290222 560.983765,807.858276 
	C561.336914,776.241394 561.526062,744.621948 562.044617,713.007874 
	C562.456421,687.902954 563.265808,662.804504 563.898743,637.703186 
M997.611938,858.043030 
	C997.718079,855.717773 997.889038,853.393372 997.920898,851.067078 
	C998.475647,810.585999 999.023804,770.104858 999.546082,729.623352 
	C999.657776,720.966370 1001.766479,711.588806 999.122925,703.852722 
	C996.480774,696.120972 988.926819,690.111450 983.747925,683.181091 
	C981.726624,680.476196 979.532898,679.568054 976.158264,679.771240 
	C948.558044,681.433044 920.941528,682.826111 893.344849,684.541565 
	C889.336609,684.790771 888.152710,683.791748 888.092834,679.789307 
	C887.818787,661.466553 887.265442,643.147888 886.785461,624.828430 
	C886.729553,622.693359 886.507874,620.562561 886.335144,618.019775 
	C864.848938,616.348267 843.689514,614.702148 822.387756,613.044983 
	C822.211365,614.252136 822.035156,614.892212 822.036072,615.532104 
	C822.076660,642.688965 822.077759,669.846252 822.315063,697.001526 
	C822.330444,698.762573 823.788269,700.989563 825.246765,702.169861 
	C829.641907,705.726501 834.234497,709.085999 839.013367,712.105591 
	C842.263123,714.158875 843.292358,716.494019 842.897400,720.325195 
	C840.421204,744.342957 838.123718,768.379761 835.915955,792.423950 
	C835.582336,796.056458 834.587769,797.985962 830.501770,797.366638 
	C828.126648,797.006714 825.652405,797.301208 823.114685,797.301208 
	C822.949768,799.042053 822.897095,800.192932 822.723572,801.325378 
	C821.963806,806.286560 823.655640,808.805359 829.075562,808.285339 
	C830.933838,808.107056 832.875793,808.799927 835.639832,809.228088 
	C835.639832,825.974792 835.639832,842.356201 835.639832,859.209045 
	C854.643921,858.005554 872.670166,856.863953 890.564392,855.730713 
	C890.564392,842.925659 890.696655,830.783203 890.536682,818.644653 
	C890.213928,794.156311 889.797058,769.668518 889.245789,745.184448 
	C889.162964,741.506165 890.308350,740.133667 893.988281,740.057922 
	C899.811340,739.937988 905.624695,739.372131 911.443542,739.017944 
	C917.880066,738.626221 924.318115,738.260315 931.313049,737.850525 
	C932.169922,778.197510 933.013123,817.903748 933.880493,858.747131 
	C945.787109,858.747131 956.920288,858.747192 968.053406,858.747131 
	C977.701599,858.747009 987.349792,858.746765 997.611938,858.043030 
M755.763306,833.253967 
	C743.850769,832.106812 731.938293,830.959656 720.403564,829.848877 
	C720.403564,802.401489 720.403564,775.389832 720.403564,747.950195 
	C735.156677,749.038513 748.858765,750.049316 762.703674,751.070618 
	C763.619568,762.390259 764.484863,773.084290 765.365906,783.973206 
	C785.553284,784.561340 805.092468,785.130615 824.738098,785.702942 
	C826.821716,764.618225 828.880615,744.409790 830.698669,724.179810 
	C830.841675,722.588745 829.741394,720.324463 828.472961,719.272156 
	C824.507446,715.982300 819.911987,713.431030 816.065247,710.023865 
	C810.717529,705.287231 804.666565,704.162048 797.741699,703.876160 
	C759.623962,702.302246 721.489258,700.817688 683.435852,698.204163 
	C672.157043,697.429565 664.703979,699.254761 659.650879,710.135681 
	C657.088989,715.652283 654.827515,720.588379 654.737366,726.866577 
	C654.132324,769.017273 653.541931,811.175720 652.063904,853.300598 
	C651.726746,862.909607 654.221558,868.383545 662.693970,872.925354 
	C669.513977,876.581421 675.944458,878.847595 683.749695,878.901978 
	C720.072021,879.155090 756.390991,879.875488 792.711487,880.401489 
	C798.688477,880.488098 805.747681,882.412964 810.341370,879.898254 
	C814.933899,877.384094 817.170227,870.431702 820.222656,865.295898 
	C821.718933,862.778259 823.710266,859.993469 823.779053,857.286438 
	C824.066467,845.966797 823.651184,834.630981 823.629211,823.300781 
	C823.623413,820.283813 822.309814,819.287842 819.447449,819.095764 
	C802.661865,817.969177 785.889221,816.639648 769.096680,815.639648 
	C767.757202,815.559937 765.590759,817.157043 765.030701,818.488892 
	C763.360657,822.460510 762.549316,826.795105 760.853882,830.752991 
	C760.319397,832.000732 758.053772,832.506897 755.763306,833.253967 
M572.260986,826.506226 
	C572.260986,836.607727 572.260986,846.709229 572.260986,857.122864 
	C574.600037,857.122864 576.405334,857.194031 578.203674,857.111816 
	C593.844727,856.396912 609.483337,855.629028 625.125183,854.931396 
	C632.378052,854.607910 632.418518,854.664307 632.760681,847.396912 
	C635.134399,796.981567 637.518677,746.566650 639.816589,696.147827 
	C640.087097,690.212097 639.853333,684.253357 639.853333,677.817932 
	C638.235596,677.722229 636.460815,677.528198 634.685791,677.526001 
	C616.526367,677.503601 598.367004,677.504578 580.207581,677.516357 
	C573.698486,677.520569 573.652710,677.541626 573.590210,684.073303 
	C573.138916,731.218567 572.707642,778.364014 572.260986,826.506226 
M642.046631,622.593872 
	C641.830566,617.261536 636.167419,611.198120 631.216492,611.185608 
	C614.387451,611.143066 597.557495,611.254761 580.729736,611.100342 
	C577.169312,611.067688 576.173218,612.379211 576.114197,615.740967 
	C575.894958,628.234131 575.819458,640.750977 574.909729,653.201965 
	C574.447510,659.529663 576.135681,663.704163 581.884949,666.300171 
	C585.868469,668.098816 589.682861,671.410339 593.734619,671.688354 
	C602.835571,672.312744 612.039246,671.525879 621.197144,671.200623 
	C626.250183,671.021118 635.459412,662.883301 636.290710,657.937561 
	C638.222107,646.446228 640.085876,634.943665 642.046631,622.593872 
M756.272644,806.777588 
	C757.351013,802.974243 760.353027,802.834900 763.473267,803.079102 
	C777.557983,804.181946 791.644836,805.264771 805.718445,806.497437 
	C808.615540,806.751221 810.714844,806.539612 810.936218,803.027588 
	C811.150391,799.629028 810.512390,797.097900 806.295166,797.001282 
	C794.491882,796.730591 782.689514,796.387573 770.890869,795.961609 
	C766.743042,795.811890 762.525879,795.710815 758.503723,794.836365 
	C756.807922,794.467712 754.546875,792.332947 754.254456,790.695374 
	C753.382812,785.813477 753.315857,780.782898 753.012268,775.805664 
	C752.112854,761.059631 752.695068,761.189392 737.415161,760.983032 
	C733.635010,760.932068 732.035095,762.509949 731.972778,766.329834 
	C731.742249,780.464661 731.246338,794.595398 731.030640,808.730408 
	C730.872681,819.083130 730.999084,819.080872 741.514282,820.151123 
	C742.506531,820.252136 743.487793,820.456238 744.476501,820.596558 
	C750.891602,821.506775 752.058472,820.759827 753.830627,814.692566 
	C754.530518,812.296204 755.281372,809.914795 756.272644,806.777588 
M560.829895,818.706482 
	C560.744385,818.447693 560.658813,818.188965 560.573303,817.930176 
	C560.461487,817.993103 560.349670,818.056030 560.237854,818.118896 
	C560.401733,818.388245 560.565552,818.657654 560.829895,818.706482 
z"/>
<path fill="#4600D1" opacity="1.000000" stroke="none" 
	d="
M1036.010010,903.938538 
	C1041.101440,908.576660 1046.192749,913.214783 1051.583984,917.994873 
	C1056.571777,924.366028 1062.037354,930.165527 1065.770020,936.922302 
	C1071.790405,947.820068 1068.435913,957.312927 1057.100342,962.442383 
	C1053.601562,964.025574 1049.024536,963.792725 1044.998047,963.527405 
	C1035.973267,962.932495 1026.984131,961.795288 1016.611877,960.739563 
	C1025.628540,967.304138 1033.911011,972.343445 1040.998901,978.712219 
	C1053.611572,990.045410 1065.753906,1001.935913 1077.618042,1014.058289 
	C1088.322266,1024.995483 1085.171265,1036.375366 1070.587524,1040.962891 
	C1066.198975,1042.343384 1061.638428,1043.176514 1056.773071,1044.353149 
	C1057.723389,1044.820801 1058.544434,1045.224854 1059.012573,1045.455078 
	C1056.401978,1046.440186 1053.011230,1046.871948 1050.831787,1048.726685 
	C1046.862305,1052.105225 1043.721558,1056.436768 1040.035156,1060.173462 
	C1034.219238,1066.068848 1037.479858,1073.103516 1037.257935,1079.727661 
	C1037.005005,1087.272705 1035.709473,1094.897217 1036.479126,1102.320068 
	C1036.950806,1106.869873 1039.782349,1111.638184 1042.750488,1115.352417 
	C1046.737427,1120.341309 1047.374878,1121.303101 1042.542969,1125.154175 
	C1038.927368,1128.035645 1040.025879,1131.186768 1041.211914,1134.489746 
	C1042.764648,1138.813843 1040.806152,1142.607666 1036.426880,1143.559204 
	C1031.544189,1144.620361 1029.225830,1142.058350 1030.175171,1137.187866 
	C1031.018433,1132.862549 1031.422729,1128.438721 1031.758545,1124.038330 
	C1031.828247,1123.125732 1030.944580,1121.899048 1030.159180,1121.200928 
	C1023.979797,1115.708496 1022.685242,1108.656860 1022.981018,1100.818359 
	C1023.222900,1094.409302 1022.817322,1087.976074 1022.708557,1081.553467 
	C1022.629578,1076.893066 1022.724182,1072.222900 1022.446838,1067.574707 
	C1022.221985,1063.804443 1021.558655,1060.060425 1021.089783,1056.304688 
	C1020.220581,1056.330811 1019.351379,1056.356812 1018.482178,1056.382935 
	C1017.932190,1062.381348 1016.991150,1068.376587 1016.940979,1074.379150 
	C1016.889709,1080.513184 1016.135376,1087.364014 1018.506042,1092.633545 
	C1022.495728,1101.501953 1021.148132,1110.143799 1019.800781,1118.635864 
	C1018.039246,1129.738037 1020.615417,1140.381958 1021.286682,1151.200073 
	C1021.594177,1156.155273 1024.375610,1160.916870 1025.077271,1165.901123 
	C1025.560303,1169.333130 1023.271057,1172.170166 1019.524231,1172.952881 
	C1015.216370,1173.852783 1013.171814,1171.578979 1013.253479,1167.142822 
	C1013.311157,1164.004517 1012.594727,1160.814209 1011.933350,1157.708984 
	C1010.799011,1152.382935 1010.232239,1146.737061 1007.987122,1141.892700 
	C1004.522339,1134.416992 1007.017395,1127.467651 1007.702759,1120.175781 
	C1008.157349,1115.338989 1006.890625,1110.324097 1006.257507,1105.406738 
	C1005.793945,1101.806274 1005.801697,1097.930664 1004.390198,1094.707153 
	C1000.208557,1085.157715 1004.292969,1075.415283 1003.020752,1065.868042 
	C1002.636353,1062.982910 1001.781433,1060.160400 1001.160828,1057.393188 
	C1002.079834,1056.238892 1003.525085,1054.680542 1004.543152,1052.880737 
	C1004.704834,1052.594971 1002.943542,1051.221436 1002.027588,1050.060059 
	C1001.816895,1048.932495 1001.649841,1048.095581 1001.482849,1047.258789 
	C1001.121216,1047.391357 1000.759583,1047.523926 1000.397888,1047.656494 
	C1000.743103,1048.592285 1001.088257,1049.527954 1001.433411,1050.463745 
	C1001.247314,1051.145508 1001.061218,1051.827271 1000.934387,1052.292236 
	C999.558899,1050.980103 998.323914,1049.802124 996.945862,1048.487549 
	C997.111633,1048.389282 998.142395,1047.778198 1000.590515,1046.327026 
	C997.821838,1045.942383 996.526611,1045.762451 994.851074,1045.860840 
	C994.470825,1046.139160 994.395630,1046.221558 994.395630,1046.221558 
	C996.082458,1045.780640 997.769287,1045.339600 999.585327,1044.864990 
	C998.823120,1040.893677 995.278076,1041.325439 993.080139,1041.508179 
	C983.174316,1042.331543 973.314026,1043.701538 963.437195,1044.873901 
	C956.355225,1045.714478 949.292236,1046.911133 942.185608,1047.290527 
	C935.510498,1047.647095 931.357849,1042.853149 930.128479,1034.509644 
	C929.343201,1029.180908 932.281799,1024.661865 937.893188,1022.644531 
	C939.114868,1022.205200 940.387573,1021.907776 942.190063,1021.384338 
	C941.311890,1008.064087 940.442078,994.800049 939.556519,981.537048 
	C939.456665,980.041931 939.116394,978.549561 939.147949,977.061462 
	C939.246277,972.422913 938.392273,969.118286 933.512451,966.347717 
	C925.524048,961.812256 925.774658,950.671814 932.949402,944.563965 
	C934.241455,943.464050 935.741699,941.499695 935.637268,940.042542 
	C934.733276,927.420410 933.387268,914.830383 932.409119,902.212524 
	C932.176025,899.205688 930.902466,897.532349 928.483948,895.929199 
	C925.343628,893.847595 922.588135,891.185486 920.201782,889.214844 
	C920.201782,899.954590 919.982727,911.136658 920.248657,922.307251 
	C920.758362,943.714478 919.522095,964.908813 913.989014,985.713013 
	C909.255371,1003.511475 900.734009,1018.902405 886.846375,1031.356201 
	C866.218994,1049.853638 838.137878,1048.634277 817.572449,1027.344604 
	C812.093567,1021.672852 808.149719,1014.529358 803.380737,1008.151550 
	C802.393127,1006.830872 801.032227,1005.314331 799.565002,1004.917664 
	C795.417542,1003.796570 793.181824,1001.208313 791.695923,997.337769 
	C781.790405,971.534607 778.547363,944.788879 780.475403,917.367249 
	C781.046387,909.246399 782.489136,901.186768 783.591675,892.681152 
	C793.467529,892.304626 803.288269,892.197144 813.098450,892.470825 
	C816.389832,892.562744 818.200134,891.445740 819.853638,888.679260 
	C823.404785,882.737732 827.349548,877.031433 831.534973,871.602722 
	C830.999573,879.377380 829.825317,886.757080 829.165894,894.182556 
	C826.219849,927.358398 830.756042,959.559448 842.240479,990.789429 
	C842.837708,992.413452 843.878662,994.097717 845.180359,995.204041 
	C856.397522,1004.737610 872.456055,997.066162 874.671631,986.605835 
	C876.044189,980.125549 877.667847,973.559814 877.864868,966.992981 
	C878.758057,937.220581 879.091492,907.431580 879.910461,877.656433 
	C879.999512,874.416443 881.919250,871.226868 882.989868,868.013916 
	C889.368896,867.589233 895.747925,867.164490 902.883484,866.689392 
	C902.883484,863.627197 902.883484,860.739929 903.322876,857.401428 
	C911.122681,857.775330 914.170593,863.119934 916.454346,869.421265 
	C918.426575,867.859375 920.209961,866.447021 921.993347,865.034668 
	C922.012939,868.426392 923.783386,869.307251 927.036682,869.336365 
	C941.963684,869.469849 956.887451,870.017029 971.814087,870.092590 
	C978.548950,870.126709 985.025024,870.686707 991.598267,874.412231 
	C1006.550171,884.270264 1020.889404,893.810486 1035.357544,903.478394 
	C1035.696533,903.729065 1035.888306,903.875793 1036.057861,904.015137 
	C1036.053833,903.983826 1036.010010,903.938538 1036.010010,903.938538 
M989.936279,1015.291809 
	C1008.931946,1013.689819 1027.731323,1015.808716 1047.156372,1019.087463 
	C1033.156006,1001.444824 990.406494,975.443481 972.674194,973.654602 
	C974.484985,987.843323 976.279358,1001.903931 978.120850,1016.333557 
	C982.111694,1015.989624 985.560791,1015.692383 989.936279,1015.291809 
M993.056091,908.437744 
	C983.565735,902.624268 973.720459,897.749817 961.987854,896.464172 
	C963.909302,909.110535 965.765991,921.331360 967.612305,933.483643 
	C985.082581,932.629822 1002.343079,931.786255 1020.242615,930.911438 
	C1012.118896,922.198303 1003.641663,914.639587 993.056091,908.437744 
M826.153015,897.933777 
	C826.671814,893.722595 827.190613,889.511475 827.709412,885.300293 
	C819.580200,895.163879 821.222290,947.330444 828.138855,961.168579 
	C824.577393,940.009399 823.991516,919.462341 826.153015,897.933777 
z"/>
<path fill="#4600D1" opacity="1.000000" stroke="none" 
	d="
M559.680786,857.165283 
	C560.248596,861.127136 560.485779,865.214783 560.700745,868.919983 
	C569.072632,868.919983 577.020081,868.919983 585.399658,869.083618 
	C586.240234,901.540588 586.696045,933.833374 586.979187,966.127747 
	C587.005554,969.138306 585.903931,972.152771 585.405579,975.178467 
	C585.290771,975.875977 585.373535,976.668091 585.586182,977.347595 
	C587.298645,982.820251 584.917908,985.600159 579.126953,984.608643 
	C571.896362,983.370544 566.164307,979.606506 563.707336,972.642029 
	C561.798279,967.230591 560.474182,961.390747 560.175964,955.674133 
	C559.221558,937.380615 558.847412,919.056519 558.314880,900.742249 
	C558.275513,899.388184 558.757568,898.019043 559.930725,896.688904 
	C560.668091,903.211853 561.405457,909.734863 562.142761,916.257874 
	C562.488098,916.243469 562.833374,916.229065 563.178711,916.214661 
	C563.178711,906.267090 563.178711,896.319519 563.178711,884.778687 
	C555.713745,891.098083 548.100586,896.289856 542.048584,902.908997 
	C526.041443,920.416077 517.694580,941.381653 518.161987,965.187439 
	C518.436401,979.161682 523.601135,991.941528 532.359070,1002.884766 
	C545.234070,1018.972656 565.872742,1018.917236 583.383850,1008.285095 
	C595.738708,1000.783752 600.471802,988.687134 601.809875,975.080261 
	C602.690735,966.122864 602.343811,957.223022 599.041870,948.505188 
	C595.501404,939.157349 599.524719,930.302856 608.235535,926.472717 
	C615.599426,923.234802 625.546082,926.455322 629.628418,934.485657 
	C632.514587,940.162964 635.081299,946.535950 635.609192,952.782715 
	C637.482239,974.945923 633.047119,996.019592 620.468750,1014.614014 
	C601.870605,1042.107178 560.843872,1052.279419 530.697510,1037.456299 
	C499.322449,1022.028992 482.556519,989.815125 485.252289,954.890869 
	C488.191620,916.812134 509.556976,891.172058 538.458618,869.940735 
	C544.993469,865.140198 552.364258,861.477478 559.680786,857.165283 
M575.440430,972.282166 
	C572.751526,968.830261 570.062683,965.378357 567.722961,962.374695 
	C568.904907,971.862793 575.759216,978.151672 582.872192,974.970093 
	C580.339355,974.124146 578.197449,973.408752 575.440430,972.282166 
z"/>
<path fill="#4600D1" opacity="1.000000" stroke="none" 
	d="
M643.234619,874.564392 
	C647.270508,875.849304 649.057983,878.504578 649.357117,883.239868 
	C650.676453,904.126892 652.539307,924.979553 654.852173,945.810059 
	C654.296326,924.370056 653.740417,902.930115 653.159180,880.512451 
	C656.882507,882.803040 660.186279,884.569458 663.187927,886.751587 
	C666.706299,889.309387 670.415161,890.811523 674.784851,890.249756 
	C678.685608,889.748413 681.273560,890.916321 681.718384,895.263855 
	C681.880432,893.821655 682.042419,892.379395 682.252747,890.506897 
	C683.907227,890.636414 685.343079,890.748840 687.067322,891.020142 
	C690.167603,927.808472 692.979431,964.437866 695.813721,1001.359497 
	C704.695129,1000.036194 713.301514,998.161682 721.992615,997.601990 
	C734.090698,996.822998 746.269348,996.536499 758.381165,996.961426 
	C768.890076,997.330017 773.592163,1002.883545 774.306946,1013.246033 
	C774.409912,1014.738464 775.465698,1016.292786 776.409851,1017.576233 
	C779.536377,1021.826660 779.599915,1026.150024 777.157593,1030.679321 
	C774.797974,1035.055176 770.974060,1036.402588 766.268494,1036.131958 
	C732.941284,1034.215454 700.099976,1037.275391 667.723083,1045.515503 
	C660.104980,1047.454346 653.427856,1041.786987 653.445068,1033.764404 
	C653.458313,1027.604248 653.537415,1021.422302 654.053772,1015.289368 
	C655.730774,995.374146 652.592834,975.766541 650.688599,956.065796 
	C648.077759,929.055054 645.689026,902.022766 643.234619,874.564392 
z"/>
<path fill="#4300C8" opacity="1.000000" stroke="none" 
	d="
M735.003906,1047.228882 
	C712.507996,1048.517334 690.512695,1049.812622 668.517334,1051.107788 
	C668.432007,1050.760986 668.346741,1050.414185 668.261414,1050.067383 
	C672.275696,1049.076782 676.240295,1047.747192 680.312317,1047.150757 
	C706.707336,1043.284424 733.251160,1041.458374 759.933838,1041.816895 
	C761.242798,1041.834473 762.970398,1041.660278 763.744080,1042.385376 
	C764.632263,1043.217651 765.280945,1045.171631 764.900085,1046.230835 
	C764.566101,1047.159912 762.655884,1048.071777 761.456909,1048.052734 
	C752.803955,1047.914185 744.154785,1047.537109 735.003906,1047.228882 
z"/>
<path fill="#4600D1" opacity="1.000000" stroke="none" 
	d="
M994.458130,1046.084839 
	C994.509766,1045.994263 994.574036,1045.958130 994.516968,1046.071777 
	C994.395630,1046.221558 994.470825,1046.139160 994.458130,1046.084839 
z"/>
<path fill="#A70080" opacity="1.000000" stroke="none" 
	d="
M529.595337,639.768921 
	C536.632141,704.117493 543.218384,768.397034 549.804749,832.676575 
	C550.571411,840.158264 550.583069,840.221313 543.282715,841.540894 
	C529.031128,844.116699 514.726624,846.421509 500.531799,849.275024 
	C496.792114,850.026794 495.213135,848.801575 493.379944,845.986755 
	C471.747528,812.770386 450.010834,779.622009 428.300781,746.456177 
	C426.961761,744.410583 425.616089,742.369385 423.346039,740.651184 
	C424.392303,751.123291 425.433838,761.595947 426.485748,772.067505 
	C429.032440,797.419800 431.634338,822.766968 434.012848,848.134949 
	C434.161224,849.717468 432.884644,852.658447 431.747711,852.953979 
	C412.926117,857.846252 394.020599,862.415710 374.451080,867.225220 
	C373.299683,858.966736 372.160858,851.150391 371.126068,843.320374 
	C363.818268,788.023132 356.522614,732.724243 349.244232,677.423096 
	C347.093323,661.080261 345.109955,644.714600 342.821411,628.391418 
	C342.295624,624.641235 343.473816,623.458557 347.065582,622.982117 
	C365.715607,620.508606 384.348938,617.898560 402.956329,615.123047 
	C406.944336,614.528137 409.201752,615.610901 411.445618,619.077087 
	C429.818817,647.458984 448.418701,675.694275 466.961243,703.966431 
	C467.828430,705.288757 468.805206,706.539185 470.498260,707.528320 
	C467.266418,682.501160 464.034576,657.474060 460.826141,631.974487 
	C481.531372,638.870789 503.141052,638.917480 524.671509,639.588013 
	C526.162354,639.634521 527.653687,639.662964 529.595337,639.768921 
z"/>
<path fill="#010003" opacity="1.000000" stroke="none" 
	d="
M646.245056,605.796631 
	C641.506470,600.440918 635.650940,599.622620 629.038269,599.893799 
	C621.645996,600.196899 614.218689,599.643738 606.421753,599.326416 
	C706.006653,584.522583 803.752930,560.618042 899.508545,528.473267 
	C951.906738,510.883331 1003.447266,491.216522 1052.180176,464.827667 
	C1055.104248,463.244263 1057.960327,461.535431 1061.367676,459.567810 
	C1062.328857,458.915955 1062.770630,458.581238 1063.494385,458.192261 
	C1063.982666,457.833069 1064.189209,457.528168 1064.395752,457.223267 
	C1063.806519,457.348206 1063.217285,457.473114 1062.347656,457.650269 
	C1061.543701,457.918823 1061.020020,458.135132 1060.496460,458.351440 
	C1036.415161,468.002899 1012.359375,477.718872 988.240479,487.275421 
	C977.971802,491.344147 973.688354,488.821747 970.649902,478.371948 
	C967.589417,467.846527 964.135376,457.422180 960.468872,447.090210 
	C956.923401,437.099396 959.525269,432.159912 970.025208,430.750977 
	C1003.910156,426.204041 1037.930542,423.419159 1072.127930,425.136475 
	C1080.808228,425.572388 1089.604126,427.486237 1097.931885,430.062531 
	C1105.758423,432.483734 1107.232788,438.105072 1101.616333,444.274445 
	C1095.967773,450.479095 1089.478149,456.242065 1082.457031,460.817596 
	C1049.846802,482.069092 1014.713623,498.483704 978.649719,512.849121 
	C900.448364,543.999268 820.018311,568.068970 738.024475,586.871948 
	C707.715515,593.822571 677.097595,599.426270 646.245056,605.796631 
z"/>
<path fill="#010001" opacity="1.000000" stroke="none" 
	d="
M462.386932,609.663147 
	C460.107849,605.919128 461.073883,602.248108 463.831665,599.620361 
	C469.933533,593.806152 475.971436,587.698486 482.931122,583.052246 
	C506.217102,567.506348 531.514832,555.632629 556.940002,544.071167 
	C563.439392,541.115723 569.958069,538.184570 576.581055,535.523926 
	C584.143555,532.485840 589.682800,535.592102 591.445740,543.520630 
	C594.218384,555.989929 596.996216,568.458130 599.787720,580.923279 
	C601.346497,587.883972 598.478821,592.757996 591.428528,594.226135 
	C584.275024,595.715881 577.028870,596.760681 569.002441,598.085083 
	C554.263062,599.961670 540.344543,601.753540 526.369873,603.089355 
	C526.106812,601.180176 525.899841,599.727051 525.609741,597.690369 
	C504.337799,601.718750 483.362366,605.690918 462.386932,609.663147 
z"/>
<path fill="#000000" opacity="1.000000" stroke="none" 
	d="
M563.446289,637.753906 
	C563.265808,662.804504 562.456421,687.902954 562.044617,713.007874 
	C561.526062,744.621948 561.336914,776.241394 560.983765,807.858276 
	C560.967712,809.290222 560.736023,810.719788 559.513611,812.226624 
	C559.024109,808.272888 558.466064,804.326233 558.056458,800.364258 
	C555.457092,775.222412 552.861694,750.080139 550.321411,724.932251 
	C547.831238,700.280579 545.402832,675.622681 542.961487,650.966064 
	C542.601257,647.327942 542.319153,643.682068 542.001343,639.603149 
	C548.999207,638.712585 555.996521,638.258606 563.446289,637.753906 
z"/>
<path fill="#020004" opacity="1.000000" stroke="none" 
	d="
M782.326477,384.543579 
	C783.438416,384.450867 784.639343,384.035278 785.649048,384.313568 
	C802.408997,388.932922 816.857666,385.059387 829.070557,372.713898 
	C829.392334,372.388580 829.873108,372.220642 831.107056,371.488403 
	C825.842407,389.836548 829.362549,405.424561 843.115356,418.659607 
	C824.899475,413.429718 809.335876,417.464325 795.449097,432.386841 
	C800.877747,412.809967 797.580200,397.156158 782.705139,384.616333 
	C782.384216,384.498199 782.326477,384.543610 782.326477,384.543579 
z"/>
<path fill="#A5007F" opacity="1.000000" stroke="none" 
	d="
M462.543304,609.890808 
	C483.362366,605.690918 504.337799,601.718750 525.609741,597.690369 
	C525.899841,599.727051 526.106812,601.180176 525.964844,603.186584 
	C518.578308,604.547302 511.540802,605.354736 504.503296,606.162170 
	C504.520081,606.396729 504.536865,606.631226 504.553650,606.865723 
	C511.999756,606.865723 519.445862,606.865723 526.914062,607.307129 
	C527.298950,611.391968 527.661743,615.035461 528.024597,618.678955 
	C510.915405,619.178162 493.725616,620.453186 476.860199,616.622314 
	C471.903351,615.496277 467.407043,612.342773 462.543304,609.890808 
z"/>
<path fill="#070308" opacity="1.000000" stroke="none" 
	d="
M528.472900,618.713623 
	C527.661743,615.035461 527.298950,611.391968 527.323181,607.189575 
	C540.133667,605.730957 552.557129,604.831299 564.980591,603.931641 
	C564.961853,608.056030 564.943115,612.180481 564.910278,616.785278 
	C561.317200,617.265076 557.731323,617.120850 554.160583,617.292603 
	C545.743591,617.697693 537.333923,618.253479 528.472900,618.713623 
z"/>
<path fill="#010003" opacity="1.000000" stroke="none" 
	d="
M683.897217,686.671753 
	C678.503784,686.627441 672.871460,686.424438 667.258423,685.978333 
	C663.086792,685.646790 660.354431,687.375244 658.346741,690.935425 
	C656.517151,694.179749 654.360168,697.239441 651.265869,700.016235 
	C651.265869,698.129089 651.175781,696.236816 651.281433,694.355591 
	C651.736511,686.252075 652.336060,678.155029 652.646545,670.046570 
	C652.692932,668.837341 651.721436,666.756226 650.806946,666.487671 
	C646.899841,665.340088 647.185181,662.763000 647.952698,659.447632 
	C659.118652,667.914307 670.234924,676.763489 681.387390,685.566711 
	C681.992004,686.043884 682.899902,686.136841 683.897217,686.671753 
z"/>
<path fill="#020004" opacity="1.000000" stroke="none" 
	d="
M853.425232,450.870117 
	C857.833008,448.963715 861.827454,447.115570 865.944458,445.210724 
	C863.614075,453.150452 865.982544,460.264923 872.311584,467.288635 
	C863.166992,465.266602 855.847656,466.785553 848.817444,474.204315 
	C851.169067,464.344543 849.379944,457.010468 843.358582,450.928345 
	C846.718933,450.928345 849.865417,450.928345 853.425232,450.870117 
z"/>
<path fill="#020004" opacity="1.000000" stroke="none" 
	d="
M873.340210,428.305023 
	C873.513062,425.363403 874.358826,422.263153 873.710815,419.515106 
	C872.564453,414.653320 870.509338,410.005768 868.810425,405.200317 
	C876.151062,406.828278 883.113586,404.632233 890.049683,398.365204 
	C887.589844,407.880310 890.067322,415.137543 896.505676,421.874146 
	C887.230896,419.813019 879.609680,421.072571 873.411011,428.094696 
	C873.239319,428.336273 873.340210,428.305023 873.340210,428.305023 
z"/>
<path fill="#4501C1" opacity="1.000000" stroke="none" 
	d="
M565.009827,603.532715 
	C552.557129,604.831299 540.133667,605.730957 527.301086,606.748169 
	C519.445862,606.865723 511.999756,606.865723 504.553650,606.865723 
	C504.536865,606.631226 504.520081,606.396729 504.503296,606.162170 
	C511.540802,605.354736 518.578308,604.547302 526.020874,603.642578 
	C540.344543,601.753540 554.263062,599.961670 568.598511,598.187012 
	C569.038391,598.523804 569.051331,598.843811 569.044189,599.404236 
	C566.895081,599.883057 564.562439,599.900391 565.009827,603.532715 
z"/>
<path fill="#020004" opacity="1.000000" stroke="none" 
	d="
M831.382202,370.647400 
	C831.294189,370.538574 831.592712,370.462708 831.592712,370.462708 
	C831.592712,370.462708 831.470276,370.756195 831.382202,370.647400 
z"/>
<path fill="#020004" opacity="1.000000" stroke="none" 
	d="
M782.381714,384.505859 
	C782.549622,384.286316 782.720032,384.059113 782.890442,383.831940 
	C782.816956,383.950409 782.743469,384.068878 782.498230,384.365479 
	C782.326477,384.543610 782.384216,384.498199 782.381714,384.505859 
z"/>
<path fill="#020004" opacity="1.000000" stroke="none" 
	d="
M866.599854,404.504181 
	C866.567688,404.497467 866.631958,404.510895 866.599854,404.504181 
z"/>
<path fill="#020004" opacity="1.000000" stroke="none" 
	d="
M844.509521,419.580566 
	C844.406189,419.649506 844.362549,419.380463 844.362549,419.380463 
	C844.362549,419.380463 844.612793,419.511627 844.509521,419.580566 
z"/>
<path fill="#020004" opacity="1.000000" stroke="none" 
	d="
M873.219116,428.385071 
	C873.198975,428.433899 873.101562,428.147552 873.101562,428.147552 
	C873.101562,428.147552 873.215149,428.420349 873.277710,428.362671 
	C873.340210,428.305023 873.239319,428.336273 873.219116,428.385071 
z"/>
<path fill="#020004" opacity="1.000000" stroke="none" 
	d="
M795.586487,432.534058 
	C795.457764,432.624725 795.412842,432.271515 795.412842,432.271515 
	C795.412842,432.271515 795.715210,432.443390 795.586487,432.534058 
z"/>
<path fill="#A7007F" opacity="1.000000" stroke="none" 
	d="
M997.304932,858.394775 
	C987.349792,858.746765 977.701599,858.747009 968.053406,858.747131 
	C956.920288,858.747192 945.787109,858.747131 933.880493,858.747131 
	C933.013123,817.903748 932.169922,778.197510 931.313049,737.850525 
	C924.318115,738.260315 917.880066,738.626221 911.443542,739.017944 
	C905.624695,739.372131 899.811340,739.937988 893.988281,740.057922 
	C890.308350,740.133667 889.162964,741.506165 889.245789,745.184448 
	C889.797058,769.668518 890.213928,794.156311 890.536682,818.644653 
	C890.696655,830.783203 890.564392,842.925659 890.564392,855.730713 
	C872.670166,856.863953 854.643921,858.005554 835.639832,859.209045 
	C835.639832,842.356201 835.639832,825.974792 835.639832,809.228088 
	C832.875793,808.799927 830.933838,808.107056 829.075562,808.285339 
	C823.655640,808.805359 821.963806,806.286560 822.723572,801.325378 
	C822.897095,800.192932 822.949768,799.042053 823.114685,797.301208 
	C825.652405,797.301208 828.126648,797.006714 830.501770,797.366638 
	C834.587769,797.985962 835.582336,796.056458 835.915955,792.423950 
	C838.123718,768.379761 840.421204,744.342957 842.897400,720.325195 
	C843.292358,716.494019 842.263123,714.158875 839.013367,712.105591 
	C834.234497,709.085999 829.641907,705.726501 825.246765,702.169861 
	C823.788269,700.989563 822.330444,698.762573 822.315063,697.001526 
	C822.077759,669.846252 822.076660,642.688965 822.036072,615.532104 
	C822.035156,614.892212 822.211365,614.252136 822.387756,613.044983 
	C843.689514,614.702148 864.848938,616.348267 886.335144,618.019775 
	C886.507874,620.562561 886.729553,622.693359 886.785461,624.828430 
	C887.265442,643.147888 887.818787,661.466553 888.092834,679.789307 
	C888.152710,683.791748 889.336609,684.790771 893.344849,684.541565 
	C920.941528,682.826111 948.558044,681.433044 976.158264,679.771240 
	C979.532898,679.568054 981.726624,680.476196 983.747925,683.181091 
	C988.926819,690.111450 996.480774,696.120972 999.122925,703.852722 
	C1001.766479,711.588806 999.657776,720.966370 999.546082,729.623352 
	C999.023804,770.104858 998.475647,810.585999 997.920898,851.067078 
	C997.889038,853.393372 997.718079,855.717773 997.304932,858.394775 
z"/>
<path fill="#A7007F" opacity="1.000000" stroke="none" 
	d="
M1035.228638,903.350708 
	C1020.889404,893.810486 1006.550171,884.270264 991.948730,874.508972 
	C991.742432,871.940857 992.609070,870.663513 995.293518,870.777893 
	C999.600891,870.961487 1003.921814,870.827087 1008.825928,870.827087 
	C1008.955627,868.977478 1009.162720,867.228394 1009.188599,865.476746 
	C1009.804871,823.669250 1010.447998,781.862000 1010.918945,740.052795 
	C1010.958862,736.516418 1012.715698,734.635437 1014.701538,732.051819 
	C1024.923096,718.753357 1038.085815,721.831360 1051.687500,723.986145 
	C1086.866211,729.559082 1122.141968,734.517700 1157.356812,739.867554 
	C1159.654297,740.216614 1162.081787,741.407043 1163.901733,742.881470 
	C1169.204102,747.177246 1174.381104,751.659668 1179.262817,756.421997 
	C1180.609131,757.735352 1181.639404,760.447327 1181.310303,762.241699 
	C1176.656494,787.611511 1171.823730,812.949768 1166.749878,838.238647 
	C1166.313477,840.414246 1164.160767,842.542175 1162.302490,844.087830 
	C1149.899536,854.404175 1135.969604,850.952026 1122.000488,848.607117 
	C1102.798462,845.383789 1083.505737,842.700256 1064.250000,839.797913 
	C1063.444824,839.676575 1062.620605,839.681274 1061.231201,839.589294 
	C1060.101196,846.130676 1058.986938,852.580994 1057.789185,859.515137 
	C1071.871338,862.175781 1085.386841,864.872070 1098.981445,867.080383 
	C1100.363647,867.305054 1102.902344,864.919373 1103.729492,863.184753 
	C1105.998047,858.427856 1108.969727,857.561462 1114.086304,858.649048 
	C1130.187012,862.071411 1146.422241,864.860474 1163.369873,868.038025 
	C1163.369873,875.198853 1163.493896,882.165222 1163.270020,889.120361 
	C1163.222656,890.593018 1162.099731,892.171692 1161.138184,893.450317 
	C1156.634399,899.439880 1151.813232,905.200989 1147.518188,911.332886 
	C1145.305664,914.491699 1142.940918,915.474792 1139.175781,915.031982 
	C1116.854858,912.407043 1094.513062,909.958252 1072.172119,907.506226 
	C1060.424438,906.216858 1048.664307,905.041382 1036.459961,903.876526 
	C1036.010010,903.938538 1036.053833,903.983826 1035.891846,903.935425 
	C1035.547607,903.722351 1035.380615,903.543579 1035.228638,903.350708 
M1067.819458,775.195312 
	C1066.395508,784.602234 1064.971558,794.009155 1063.507080,803.683044 
	C1079.124634,806.955200 1093.796509,810.029236 1108.921387,813.198181 
	C1109.653076,802.352356 1110.330444,792.312195 1111.026733,781.991211 
	C1096.531494,779.626770 1082.599487,777.354248 1067.819458,775.195312 
z"/>
<path fill="#A7007F" opacity="1.000000" stroke="none" 
	d="
M756.171875,833.303223 
	C758.053772,832.506897 760.319397,832.000732 760.853882,830.752991 
	C762.549316,826.795105 763.360657,822.460510 765.030701,818.488892 
	C765.590759,817.157043 767.757202,815.559937 769.096680,815.639648 
	C785.889221,816.639648 802.661865,817.969177 819.447449,819.095764 
	C822.309814,819.287842 823.623413,820.283813 823.629211,823.300781 
	C823.651184,834.630981 824.066467,845.966797 823.779053,857.286438 
	C823.710266,859.993469 821.718933,862.778259 820.222656,865.295898 
	C817.170227,870.431702 814.933899,877.384094 810.341370,879.898254 
	C805.747681,882.412964 798.688477,880.488098 792.711487,880.401489 
	C756.390991,879.875488 720.072021,879.155090 683.749695,878.901978 
	C675.944458,878.847595 669.513977,876.581421 662.693970,872.925354 
	C654.221558,868.383545 651.726746,862.909607 652.063904,853.300598 
	C653.541931,811.175720 654.132324,769.017273 654.737366,726.866577 
	C654.827515,720.588379 657.088989,715.652283 659.650879,710.135681 
	C664.703979,699.254761 672.157043,697.429565 683.435852,698.204163 
	C721.489258,700.817688 759.623962,702.302246 797.741699,703.876160 
	C804.666565,704.162048 810.717529,705.287231 816.065247,710.023865 
	C819.911987,713.431030 824.507446,715.982300 828.472961,719.272156 
	C829.741394,720.324463 830.841675,722.588745 830.698669,724.179810 
	C828.880615,744.409790 826.821716,764.618225 824.738098,785.702942 
	C805.092468,785.130615 785.553284,784.561340 765.365906,783.973206 
	C764.484863,773.084290 763.619568,762.390259 762.703674,751.070618 
	C748.858765,750.049316 735.156677,749.038513 720.403564,747.950195 
	C720.403564,775.389832 720.403564,802.401489 720.403564,829.848877 
	C731.938293,830.959656 743.850769,832.106812 756.171875,833.303223 
z"/>
<path fill="#A7007F" opacity="1.000000" stroke="none" 
	d="
M572.265503,826.007812 
	C572.707642,778.364014 573.138916,731.218567 573.590210,684.073303 
	C573.652710,677.541626 573.698486,677.520569 580.207581,677.516357 
	C598.367004,677.504578 616.526367,677.503601 634.685791,677.526001 
	C636.460815,677.528198 638.235596,677.722229 639.853333,677.817932 
	C639.853333,684.253357 640.087097,690.212097 639.816589,696.147827 
	C637.518677,746.566650 635.134399,796.981567 632.760681,847.396912 
	C632.418518,854.664307 632.378052,854.607910 625.125183,854.931396 
	C609.483337,855.629028 593.844727,856.396912 578.203674,857.111816 
	C576.405334,857.194031 574.600037,857.122864 572.260986,857.122864 
	C572.260986,846.709229 572.260986,836.607727 572.265503,826.007812 
z"/>
<path fill="#010002" opacity="1.000000" stroke="none" 
	d="
M882.548645,868.017090 
	C881.919250,871.226868 879.999512,874.416443 879.910461,877.656433 
	C879.091492,907.431580 878.758057,937.220581 877.864868,966.992981 
	C877.667847,973.559814 876.044189,980.125549 874.671631,986.605835 
	C872.456055,997.066162 856.397522,1004.737610 845.180359,995.204041 
	C843.878662,994.097717 842.837708,992.413452 842.240479,990.789429 
	C830.756042,959.559448 826.219849,927.358398 829.165894,894.182556 
	C829.825317,886.757080 830.999573,879.377380 831.860474,871.534973 
	C848.558594,870.069031 865.333008,869.044678 882.548645,868.017090 
z"/>
<path fill="#A7007F" opacity="1.000000" stroke="none" 
	d="
M642.011841,623.019775 
	C640.085876,634.943665 638.222107,646.446228 636.290710,657.937561 
	C635.459412,662.883301 626.250183,671.021118 621.197144,671.200623 
	C612.039246,671.525879 602.835571,672.312744 593.734619,671.688354 
	C589.682861,671.410339 585.868469,668.098816 581.884949,666.300171 
	C576.135681,663.704163 574.447510,659.529663 574.909729,653.201965 
	C575.819458,640.750977 575.894958,628.234131 576.114197,615.740967 
	C576.173218,612.379211 577.169312,611.067688 580.729736,611.100342 
	C597.557495,611.254761 614.387451,611.143066 631.216492,611.185608 
	C636.167419,611.198120 641.830566,617.261536 642.011841,623.019775 
z"/>
<path fill="#000000" opacity="1.000000" stroke="none" 
	d="
M921.995056,864.563782 
	C920.209961,866.447021 918.426575,867.859375 916.454346,869.421265 
	C914.170593,863.119934 911.122681,857.775330 903.376709,856.948059 
	C902.647522,831.985229 902.353455,807.023682 901.932739,782.064331 
	C901.789856,773.587219 901.372009,765.113403 900.992249,756.642090 
	C900.811584,752.612610 902.560974,750.790466 906.613159,750.970032 
	C908.430359,751.050598 910.276611,750.867798 912.087402,750.632935 
	C919.484558,749.673645 919.902161,750.086487 920.018616,757.793701 
	C920.328003,778.258484 920.672119,798.722717 921.050049,819.186401 
	C921.326477,834.155945 921.678467,849.124084 921.995056,864.563782 
z"/>
<path fill="#000000" opacity="1.000000" stroke="none" 
	d="
M756.140869,807.152100 
	C755.281372,809.914795 754.530518,812.296204 753.830627,814.692566 
	C752.058472,820.759827 750.891602,821.506775 744.476501,820.596558 
	C743.487793,820.456238 742.506531,820.252136 741.514282,820.151123 
	C730.999084,819.080872 730.872681,819.083130 731.030640,808.730408 
	C731.246338,794.595398 731.742249,780.464661 731.972778,766.329834 
	C732.035095,762.509949 733.635010,760.932068 737.415161,760.983032 
	C752.695068,761.189392 752.112854,761.059631 753.012268,775.805664 
	C753.315857,780.782898 753.382812,785.813477 754.254456,790.695374 
	C754.546875,792.332947 756.807922,794.467712 758.503723,794.836365 
	C762.525879,795.710815 766.743042,795.811890 770.890869,795.961609 
	C782.689514,796.387573 794.491882,796.730591 806.295166,797.001282 
	C810.512390,797.097900 811.150391,799.629028 810.936218,803.027588 
	C810.714844,806.539612 808.615540,806.751221 805.718445,806.497437 
	C791.644836,805.264771 777.557983,804.181946 763.473267,803.079102 
	C760.353027,802.834900 757.351013,802.974243 756.140869,807.152100 
z"/>
<path fill="#000000" opacity="1.000000" stroke="none" 
	d="
M560.779663,818.816772 
	C560.565552,818.657654 560.401733,818.388245 560.237854,818.118896 
	C560.349670,818.056030 560.461487,817.993103 560.573303,817.930176 
	C560.658813,818.188965 560.744385,818.447693 560.779663,818.816772 
z"/>
<path fill="#010003" opacity="1.000000" stroke="none" 
	d="
M989.473083,1015.343506 
	C985.560791,1015.692383 982.111694,1015.989624 978.120850,1016.333557 
	C976.279358,1001.903931 974.484985,987.843323 972.674194,973.654602 
	C990.406494,975.443481 1033.156006,1001.444824 1047.156372,1019.087463 
	C1027.731323,1015.808716 1008.931946,1013.689819 989.473083,1015.343506 
z"/>
<path fill="#020004" opacity="1.000000" stroke="none" 
	d="
M993.359863,908.640869 
	C1003.641663,914.639587 1012.118896,922.198303 1020.242615,930.911438 
	C1002.343079,931.786255 985.082581,932.629822 967.612305,933.483643 
	C965.765991,921.331360 963.909302,909.110535 961.987854,896.464172 
	C973.720459,897.749817 983.565735,902.624268 993.359863,908.640869 
z"/>
<path fill="#09001B" opacity="1.000000" stroke="none" 
	d="
M826.122559,898.387390 
	C823.991516,919.462341 824.577393,940.009399 828.138855,961.168579 
	C821.222290,947.330444 819.580200,895.163879 827.709412,885.300293 
	C827.190613,889.511475 826.671814,893.722595 826.122559,898.387390 
z"/>
<path fill="#000000" opacity="1.000000" stroke="none" 
	d="
M1001.397522,1050.471802 
	C1001.088257,1049.527954 1000.743103,1048.592285 1000.397888,1047.656494 
	C1000.759583,1047.523926 1001.121216,1047.391357 1001.482849,1047.258789 
	C1001.649841,1048.095581 1001.816895,1048.932495 1001.645508,1050.149414 
	C1001.307068,1050.529419 1001.361572,1050.479858 1001.397522,1050.471802 
z"/>
<path fill="#120A0B" opacity="1.000000" stroke="none" 
	d="
M1035.357544,903.478455 
	C1035.380615,903.543579 1035.547607,903.722351 1035.895752,903.966736 
	C1035.888306,903.875793 1035.696533,903.729065 1035.357544,903.478455 
z"/>
<path fill="#09001B" opacity="1.000000" stroke="none" 
	d="
M575.748047,972.487793 
	C578.197449,973.408752 580.339355,974.124146 582.872192,974.970093 
	C575.759216,978.151672 568.904907,971.862793 567.722961,962.374695 
	C570.062683,965.378357 572.751526,968.830261 575.748047,972.487793 
z"/>
<path fill="#4700D2" opacity="1.000000" stroke="none" 
	d="
M1060.704834,458.619415 
	C1061.020020,458.135132 1061.543701,457.918823 1062.493652,457.812500 
	C1062.919922,457.922516 1063.212402,458.246521 1063.212402,458.246521 
	C1062.770630,458.581238 1062.328857,458.915955 1061.613892,459.332825 
	C1061.198120,459.239166 1061.055664,459.063263 1060.704834,458.619415 
z"/>
<path fill="#4700D2" opacity="1.000000" stroke="none" 
	d="
M1062.773926,457.760254 
	C1063.217285,457.473114 1063.806519,457.348206 1064.395752,457.223267 
	C1064.189209,457.528168 1063.982666,457.833069 1063.494385,458.192261 
	C1063.212402,458.246521 1062.919922,457.922516 1062.773926,457.760254 
z"/>
<path fill="#10090A" opacity="1.000000" stroke="none" 
	d="
M1068.243408,775.138550 
	C1082.599487,777.354248 1096.531494,779.626770 1111.026733,781.991211 
	C1110.330444,792.312195 1109.653076,802.352356 1108.921387,813.198181 
	C1093.796509,810.029236 1079.124634,806.955200 1063.507080,803.683044 
	C1064.971558,794.009155 1066.395508,784.602234 1068.243408,775.138550 
z"/>
</svg>